<?xml version="1.0" encoding="UTF-8" standalone="no"?>
<!DOCTYPE svg PUBLIC "-//W3C//DTD SVG 1.1//EN" "http://www.w3.org/Graphics/SVG/1.1/DTD/svg11.dtd">
<svg width="100%" height="100%" viewBox="0 0 976 468" version="1.1" xmlns="http://www.w3.org/2000/svg" xmlns:xlink="http://www.w3.org/1999/xlink" xml:space="preserve" xmlns:serif="http://www.serif.com/" style="fill-rule:evenodd;clip-rule:evenodd;stroke-linejoin:round;stroke-miterlimit:2;">
    <g transform="matrix(1,0,0,1,-2311.18,-4112.5)">
        <g transform="matrix(4.16667,0,0,4.16667,0,0)">
            <g transform="matrix(1,0,0,1,750.396,1071.46)">
                <path d="M0,-56.304L-14.058,-23.21L-27.383,-56.304L-33.46,-56.304L-17.499,-15.888L-23.796,0L-17.792,0L5.857,-56.304L0,-56.304Z" style="fill:rgb(141,72,181);fill-rule:nonzero;"/>
            </g>
            <g transform="matrix(1,0,0,1,632.964,1023.17)">
                <path d="M0,36.046C-5.255,42.579 -12.785,46.207 -21.709,46.381L-21.991,46.381C-29.596,46.381 -36.212,43.576 -41.683,38.038C-47.178,32.401 -49.959,25.586 -49.959,17.774C-49.959,9.705 -47.153,2.914 -41.608,-2.416C-36.287,-7.671 -29.695,-10.335 -22.008,-10.335L-21.709,-10.335C-16.139,-10.261 -11.257,-8.882 -6.799,-6.127C-4.541,-4.699 -2.541,-3.005 -0.813,-1.062L-4.732,3.147C-9.024,-2.067 -14.652,-4.607 -21.858,-4.607L-22.132,-4.607C-28.093,-4.607 -33.306,-2.416 -37.64,1.918C-41.923,6.202 -44.165,11.448 -44.306,17.5C-44.447,23.759 -42.272,29.288 -37.847,33.921C-33.356,38.487 -27.927,40.794 -21.709,40.794C-18.098,40.794 -14.511,39.831 -11.042,37.922C-8.252,36.37 -5.927,34.444 -4.143,32.186L0,36.046Z" style="fill:rgb(141,72,181);fill-rule:nonzero;"/>
            </g>
            <g transform="matrix(1,0,0,1,672.796,1038.04)">
                <path d="M0,-0.33C0.055,4.594 -1.754,8.898 -5.375,12.465C-8.98,16.015 -13.313,17.783 -18.346,17.731C-23.277,17.676 -27.568,15.884 -31.101,12.407C-34.63,8.933 -36.419,4.704 -36.419,-0.165C-36.419,-5.07 -34.63,-9.319 -31.101,-12.794C-27.5,-16.337 -23.349,-18.06 -18.409,-18.06C-13.389,-18.06 -9.18,-16.373 -5.541,-12.901C-1.919,-9.447 -0.055,-5.217 0,-0.33M-1.773,-16.767C-6.479,-21.182 -12.115,-23.421 -18.523,-23.421C-24.921,-23.421 -30.503,-21.082 -35.117,-16.468C-39.651,-11.874 -41.95,-6.274 -41.95,0.178C-41.95,6.447 -39.59,11.897 -34.933,16.379C-30.248,20.833 -24.631,23.091 -18.238,23.091C-11.841,23.091 -6.259,20.753 -1.645,16.139C2.966,11.47 5.303,5.831 5.303,-0.621C5.303,-6.987 2.921,-12.421 -1.773,-16.767" style="fill:rgb(141,72,181);fill-rule:nonzero;"/>
            </g>
            <g transform="matrix(1,0,0,1,713.602,1037.69)">
                <path d="M0,-1.161C0.164,3.612 -1.476,7.839 -4.875,11.404C-8.233,14.929 -12.365,16.716 -17.154,16.716L-27.06,16.716L-27.06,-17.876L-18.41,-17.876C-13.491,-17.876 -9.176,-16.252 -5.584,-13.048C-1.989,-9.84 -0.111,-5.842 0,-1.161M-1.436,-16.644C-6.046,-20.905 -11.988,-23.066 -19.095,-23.066L-32.362,-23.066L-32.362,21.905L-16.926,21.905C-10.832,21.905 -5.519,19.682 -1.137,15.3C3.287,10.935 5.53,5.602 5.53,-0.551C5.53,-6.959 3.187,-12.373 -1.436,-16.644" style="fill:rgb(141,72,181);fill-rule:nonzero;"/>
            </g>
            <g transform="matrix(1,0,0,1,652.523,1009.05)">
                <path d="M0,68.452L37.993,68.452C41.236,68.452 44.344,69.756 46.616,72.071L47.477,72.947C56.477,79.947 66.366,84.638 80.154,84.638C108.363,84.638 131.25,61.423 130.709,33.099C130.181,5.419 106.991,-16.482 79.305,-16.482L-40.858,-16.482C-68.543,-16.482 -91.734,5.419 -92.262,33.099C-92.803,61.423 -69.916,84.638 -41.708,84.638C-27.911,84.638 -16.523,79.947 -8.523,71.947L-8.058,71.53C-5.842,69.548 -2.973,68.452 0,68.452M81.375,90.196C66.598,90.505 52.688,85.189 41.992,75.239C41.167,74.471 40.095,74.023 38.967,74.023L-0.521,74.023C-1.647,74.023 -2.718,74.47 -3.542,75.237C-14.22,85.178 -28.113,90.494 -42.882,90.197C-73.441,89.581 -98.119,64.125 -97.839,33.561C-97.559,2.847 -72.486,-22.053 -41.708,-22.053L80.154,-22.053C110.92,-22.053 135.984,2.826 136.287,33.521C136.587,64.082 111.931,89.556 81.375,90.196" style="fill:rgb(141,72,181);fill-rule:nonzero;"/>
            </g>
        </g>
    </g>
</svg>
