<?xml version="1.0" encoding="UTF-8" standalone="no"?>
<!DOCTYPE svg PUBLIC "-//W3C//DTD SVG 1.1//EN" "http://www.w3.org/Graphics/SVG/1.1/DTD/svg11.dtd">
<svg width="100%" height="100%" viewBox="0 0 1067 1067" version="1.1" xmlns="http://www.w3.org/2000/svg" xmlns:xlink="http://www.w3.org/1999/xlink" xml:space="preserve" xmlns:serif="http://www.serif.com/" style="fill-rule:evenodd;clip-rule:evenodd;stroke-linejoin:round;stroke-miterlimit:2;">
    <g transform="matrix(1,0,0,1,-487.5,-12129.2)">
        <g transform="matrix(4.16667,0,0,4.16667,0,0)">
            <g opacity="0.7">
                <g transform="matrix(1,0,0,1,373,2941.22)">
                    <path d="M0,195.566L0,0.001C0,-16.688 -13.529,-30.217 -30.217,-30.217L-225.783,-30.217C-242.471,-30.217 -256,-16.688 -256,0.001L-256,195.566C-256,212.254 -242.471,225.783 -225.783,225.783L-30.217,225.783C-13.529,225.783 0,212.254 0,195.566" style="fill:white;fill-rule:nonzero;"/>
                </g>
            </g>
            <g transform="matrix(1,0,0,1,285.156,3058.74)">
                <path d="M0,-4.959C-5.417,1.358 -10.684,7.501 -15.999,13.7C-18.315,16.402 -22.529,16.301 -24.717,13.495C-31.032,5.395 -37.171,-2.478 -43.309,-10.352C-50.175,-19.16 -57.041,-27.969 -63.939,-36.82C-64.897,-38.048 -66.771,-38.018 -67.677,-36.751C-76.559,-24.345 -108.147,23.312 -116.917,37.422C-117.967,39.112 -116.748,41.294 -114.759,41.294L34.022,41.294C36.108,41.294 37.299,38.913 36.055,37.238C25.577,23.144 15.275,9.286 4.812,-4.79C3.634,-6.374 1.285,-6.458 0,-4.959M-141.697,50.132C-117.848,14.451 -94.027,-21.248 -70.197,-56.941L-70.116,-57.063C-68.51,-59.465 -65.021,-59.603 -63.233,-57.332C-49.424,-39.802 -35.975,-22.268 -22.146,-4.693C-21.028,-3.272 -18.882,-3.228 -17.705,-4.602C-12.063,-11.18 -6.513,-17.653 -0.838,-24.271C1.243,-26.698 5.042,-26.566 6.949,-24.001C24.896,0.131 42.697,24.065 60.814,48.425C62.723,50.993 60.895,54.644 57.695,54.644L-139.338,54.644C-141.635,54.644 -143.003,52.082 -141.725,50.173L-141.697,50.132Z" style="fill:rgb(63,64,68);fill-rule:nonzero;"/>
            </g>
            <g transform="matrix(1,0,0,1,311.103,2975.74)">
                <path d="M0,25.67C7.202,25.666 13.125,19.791 13.172,12.606C13.219,5.412 7.384,-0.547 0.193,-0.648C-7.177,-0.751 -13.241,5.263 -13.185,12.619C-13.13,19.803 -7.198,25.674 0,25.67M7.209,-12.847C20.043,-9.315 28.359,3.918 26.08,16.655C23.64,30.286 11.762,39.704 -1.86,38.809C-14.346,37.988 -24.843,27.938 -26.271,15.435C-27.713,2.817 -19.619,-9.438 -7.222,-12.846C-2.899,-14.034 2.896,-14.034 7.209,-12.847" style="fill:rgb(63,64,68);fill-rule:nonzero;"/>
            </g>
        </g>
    </g>
</svg>
