<?xml version="1.0" encoding="UTF-8" standalone="no"?>
<!DOCTYPE svg PUBLIC "-//W3C//DTD SVG 1.1//EN" "http://www.w3.org/Graphics/SVG/1.1/DTD/svg11.dtd">
<svg width="100%" height="100%" viewBox="0 0 679 1178" version="1.1" xmlns="http://www.w3.org/2000/svg" xmlns:xlink="http://www.w3.org/1999/xlink" xml:space="preserve" xmlns:serif="http://www.serif.com/" style="fill-rule:evenodd;clip-rule:evenodd;stroke-linejoin:round;stroke-miterlimit:2;">
    <g transform="matrix(1,0,0,1,-4057.55,-14586.3)">
        <g transform="matrix(4.16667,0,0,4.16667,0,0)">
            <g opacity="0.5">
                <g transform="matrix(-0.999024,0.0441745,0.0441745,0.999024,1105.62,3783.29)">
                    <path d="M1.508,-68.241C-17.345,-68.241 -32.629,-52.957 -32.629,-34.104C-32.629,-15.251 -17.345,0.033 1.508,0.033C20.361,0.033 35.646,-15.251 35.645,-34.104C35.645,-52.958 20.361,-68.241 1.508,-68.241" style="fill:rgb(57,98,211);fill-rule:nonzero;"/>
                </g>
            </g>
            <g opacity="0.5">
                <g transform="matrix(1,0,0,1,1133.51,3576.9)">
                    <path d="M0,65.787L-23.376,-8.21C-27.167,-20.213 -42.531,-23.61 -51.031,-14.325L-103.426,42.917C-111.925,52.203 -107.186,67.207 -94.895,69.925L-19.123,86.679C-6.833,89.397 3.792,77.79 0,65.787" style="fill:rgb(57,98,211);fill-rule:nonzero;"/>
                </g>
            </g>
            <g opacity="0.5">
                <g transform="matrix(1,0,0,1,1003.75,3504.35)">
                    <path d="M0,38.846L0,26.778C0,26.511 0.217,26.294 0.483,26.294L12.552,26.294C14.564,26.294 16.2,24.658 16.2,22.646L16.2,16.2C16.2,14.188 14.564,12.552 12.552,12.552L0.483,12.552C0.217,12.552 0,12.335 0,12.068L0,0C0,-2.011 -1.636,-3.648 -3.647,-3.648L-10.094,-3.648C-12.106,-3.648 -13.742,-2.011 -13.742,0L-13.742,12.068C-13.742,12.335 -13.959,12.552 -14.226,12.552L-26.294,12.552C-28.306,12.552 -29.942,14.188 -29.942,16.2L-29.942,22.646C-29.942,24.658 -28.306,26.294 -26.294,26.294L-14.226,26.294C-13.959,26.294 -13.742,26.511 -13.742,26.778L-13.742,38.846C-13.742,40.858 -12.106,42.494 -10.094,42.494L-3.647,42.494C-1.636,42.494 0,40.858 0,38.846" style="fill:rgb(57,98,211);fill-rule:nonzero;"/>
                </g>
            </g>
        </g>
    </g>
</svg>
