<?xml version="1.0" encoding="UTF-8" standalone="no"?>
<!DOCTYPE svg PUBLIC "-//W3C//DTD SVG 1.1//EN" "http://www.w3.org/Graphics/SVG/1.1/DTD/svg11.dtd">
<svg width="100%" height="100%" viewBox="0 0 4792 3152" version="1.1" xmlns="http://www.w3.org/2000/svg" xmlns:xlink="http://www.w3.org/1999/xlink" xml:space="preserve" xmlns:serif="http://www.serif.com/" style="fill-rule:evenodd;clip-rule:evenodd;stroke-linejoin:round;stroke-miterlimit:2;">
    <g transform="matrix(1,0,0,1,-158.853,-11311.3)">
        <g transform="matrix(4.16667,0,0,4.16667,0,0)">
            <g opacity="0.5">
                <g transform="matrix(1,0,0,1,1149.17,2832.33)">
                    <path d="M0,33.678L0,-0C0,-2.526 -2.047,-4.573 -4.573,-4.573L-38.251,-4.573C-40.776,-4.573 -42.824,-2.526 -42.824,-0L-42.824,33.678C-42.824,36.203 -40.776,38.251 -38.251,38.251L-4.573,38.251C-2.047,38.251 0,36.203 0,33.678" style="fill:rgb(63,64,68);fill-rule:nonzero;"/>
                </g>
            </g>
            <g opacity="0.5">
                <g transform="matrix(1,0,0,1,1050.02,2757.86)">
                    <path d="M0,80.014L35.223,44.791C37.865,42.149 37.865,37.865 35.223,35.223L0,-0C-2.642,-2.642 -6.926,-2.642 -9.568,-0L-44.791,35.223C-47.433,37.865 -47.433,42.149 -44.791,44.791L-9.568,80.014C-6.926,82.656 -2.642,82.656 0,80.014" style="fill:rgb(63,64,68);fill-rule:nonzero;"/>
                </g>
            </g>
            <g opacity="0.5">
                <g transform="matrix(1,0,0,1,103.585,3400)">
                    <path d="M0,71L37.83,71C46.99,71 54.415,63.575 54.415,54.415L54.415,16.585C54.415,7.425 46.99,0 37.83,0L0,0C-9.16,0 -16.585,7.425 -16.585,16.585L-16.585,54.415C-16.585,63.575 -9.16,71 0,71" style="fill:rgb(63,64,68);fill-rule:nonzero;"/>
                </g>
            </g>
            <g opacity="0.5">
                <g transform="matrix(-1,0,0,1,96.8848,2847.28)">
                    <path d="M0,-42.78C-11.813,-42.78 -21.39,-33.203 -21.39,-21.39C-21.39,-9.576 -11.813,0 0,0C11.813,0 21.39,-9.576 21.39,-21.39C21.39,-33.203 11.813,-42.78 0,-42.78" style="fill:rgb(63,64,68);fill-rule:nonzero;"/>
                </g>
            </g>
            <g opacity="0.5">
                <g transform="matrix(1,0,0,1,1168.11,2927.95)">
                    <path d="M0,37.175L19.336,3.684C21.038,0.737 18.911,-2.948 15.507,-2.948L-23.165,-2.948C-26.568,-2.948 -28.696,0.737 -26.994,3.684L-7.658,37.175C-5.956,40.123 -1.702,40.123 0,37.175" style="fill:rgb(63,64,68);fill-rule:nonzero;"/>
                </g>
            </g>
            <g opacity="0.5">
                <g transform="matrix(1,0,0,1,109.042,3359.31)">
                    <path d="M0,54.851L-15.472,-2.891C-16.807,-7.873 -23.034,-9.541 -26.681,-5.894L-68.951,36.376C-72.598,40.023 -70.929,46.25 -65.947,47.584L-8.206,63.057C-3.224,64.392 1.335,59.833 0,54.851" style="fill:rgb(63,64,68);fill-rule:nonzero;"/>
                </g>
            </g>
            <g opacity="0.5">
                <g transform="matrix(1,0,0,1,182.304,2720.49)">
                    <path d="M0,61.615L0,42.473C0,42.05 0.344,41.706 0.767,41.706L19.91,41.706C23.101,41.706 25.696,39.11 25.696,35.919L25.696,25.694C25.696,22.504 23.101,19.908 19.91,19.908L0.767,19.908C0.344,19.908 0,19.564 0,19.141L0,-0.001C0,-3.192 -2.595,-5.787 -5.786,-5.787L-16.012,-5.787C-19.202,-5.787 -21.797,-3.192 -21.797,-0.001L-21.797,19.141C-21.797,19.564 -22.141,19.908 -22.564,19.908L-41.707,19.908C-44.898,19.908 -47.493,22.504 -47.493,25.694L-47.493,35.919C-47.493,39.11 -44.898,41.706 -41.707,41.706L-22.564,41.706C-22.141,41.706 -21.797,42.05 -21.797,42.473L-21.797,61.615C-21.797,64.805 -19.202,67.402 -16.012,67.402L-5.786,67.402C-2.595,67.402 0,64.805 0,61.615" style="fill:rgb(63,64,68);fill-rule:nonzero;"/>
                </g>
            </g>
        </g>
    </g>
</svg>
