<?xml version="1.0" encoding="UTF-8" standalone="no"?>
<!DOCTYPE svg PUBLIC "-//W3C//DTD SVG 1.1//EN" "http://www.w3.org/Graphics/SVG/1.1/DTD/svg11.dtd">
<svg width="100%" height="100%" viewBox="0 0 4516 2714" version="1.1" xmlns="http://www.w3.org/2000/svg" xmlns:xlink="http://www.w3.org/1999/xlink" xml:space="preserve" xmlns:serif="http://www.serif.com/" style="fill-rule:evenodd;clip-rule:evenodd;stroke-linejoin:round;stroke-miterlimit:2;">
    <g transform="matrix(1,0,0,1,-770.045,-6414.59)">
        <g transform="matrix(4.16667,0,0,4.16667,0,0)">
            <g opacity="0.7">
                <g transform="matrix(1,0,0,1,251,2030.59)">
                    <path d="M0,22.83L0,-0.001C0,-9.16 -7.425,-16.585 -16.585,-16.585L-39.415,-16.585C-48.575,-16.585 -56,-9.16 -56,-0.001L-56,22.83C-56,31.989 -48.575,39.415 -39.415,39.415L-16.585,39.415C-7.425,39.415 0,31.989 0,22.83" style="fill:rgb(57,98,211);fill-rule:nonzero;"/>
                </g>
            </g>
            <g opacity="0.7">
                <g transform="matrix(1,0,0,1,1224.14,1717.4)">
                    <path d="M0,-14.285L13.602,-27.887C17.546,-31.831 23.942,-31.831 27.887,-27.887L41.489,-14.285C45.433,-10.34 45.433,-3.945 41.489,-0L27.887,13.602C23.942,17.546 17.546,17.546 13.602,13.602L0,-0C-3.944,-3.945 -3.944,-10.34 0,-14.285" style="fill:rgb(57,98,211);fill-rule:nonzero;"/>
                </g>
            </g>
            <g opacity="0.7">
                <g transform="matrix(-1,0,0,1,1150.74,1578)">
                    <path d="M-0.001,-38.499C-10.632,-38.499 -19.25,-29.881 -19.25,-19.25C-19.25,-8.619 -10.632,0 -0.001,0C10.63,0 19.249,-8.619 19.249,-19.25C19.249,-29.881 10.63,-38.499 -0.001,-38.499" style="fill:rgb(57,98,211);fill-rule:nonzero;"/>
                </g>
            </g>
            <g opacity="0.7">
                <g transform="matrix(-1,0,0,1,254.748,2125.34)">
                    <path d="M0,-19.843C-5.479,-19.843 -9.921,-15.401 -9.921,-9.922C-9.921,-4.442 -5.479,0 0,0C5.479,0 9.921,-4.442 9.921,-9.922C9.921,-15.401 5.479,-19.843 0,-19.843" style="fill:rgb(57,98,211);fill-rule:nonzero;"/>
                </g>
            </g>
            <g opacity="0.7">
                <g transform="matrix(1,0,0,1,1204.04,1618.31)">
                    <path d="M0,54.852L-15.472,-2.89C-16.807,-7.872 -23.034,-9.54 -26.681,-5.893L-68.951,36.377C-72.598,40.023 -70.929,46.25 -65.947,47.585L-8.206,63.057C-3.224,64.392 1.335,59.833 0,54.852" style="fill:rgb(57,98,211);fill-rule:nonzero;"/>
                </g>
            </g>
            <g opacity="0.7">
                <g transform="matrix(1,0,0,1,214.753,2148.35)">
                    <path d="M0,38.846L0,26.778C0,26.511 0.217,26.294 0.483,26.294L12.552,26.294C14.564,26.294 16.2,24.658 16.2,22.646L16.2,16.2C16.2,14.188 14.564,12.552 12.552,12.552L0.483,12.552C0.217,12.552 0,12.335 0,12.068L0,0C0,-2.012 -1.636,-3.648 -3.647,-3.648L-10.094,-3.648C-12.106,-3.648 -13.742,-2.012 -13.742,0L-13.742,12.068C-13.742,12.335 -13.959,12.552 -14.226,12.552L-26.294,12.552C-28.306,12.552 -29.942,14.188 -29.942,16.2L-29.942,22.646C-29.942,24.658 -28.306,26.294 -26.294,26.294L-14.226,26.294C-13.959,26.294 -13.742,26.511 -13.742,26.778L-13.742,38.846C-13.742,40.857 -12.106,42.494 -10.094,42.494L-3.647,42.494C-1.636,42.494 0,40.857 0,38.846" style="fill:rgb(57,98,211);fill-rule:nonzero;"/>
                </g>
            </g>
        </g>
    </g>
</svg>
