<?xml version="1.0" encoding="UTF-8" standalone="no"?>
<!DOCTYPE svg PUBLIC "-//W3C//DTD SVG 1.1//EN" "http://www.w3.org/Graphics/SVG/1.1/DTD/svg11.dtd">
<svg width="100%" height="100%" viewBox="0 0 925 5319" version="1.1" xmlns="http://www.w3.org/2000/svg" xmlns:xlink="http://www.w3.org/1999/xlink" xml:space="preserve" xmlns:serif="http://www.serif.com/" style="fill-rule:evenodd;clip-rule:evenodd;stroke-linecap:round;stroke-linejoin:round;stroke-miterlimit:10;">
    <g transform="matrix(1,0,0,1,-5222.92,-11647.9)">
        <g transform="matrix(4.16667,0,0,4.16667,0,0)">
            <g transform="matrix(1,0,0,1,1421,4066.5)">
                <path d="M0,-1267.5L-137.376,-1267.5C-152.08,-1267.5 -164,-1255.58 -164,-1240.88L-164,0" style="fill:none;fill-rule:nonzero;stroke:rgb(63,64,68);stroke-width:7px;"/>
            </g>
            <g transform="matrix(1,0,0,1,1446.5,4068.5)">
                <path d="M0,-1243L-151.549,-1243C-158.426,-1243 -164,-1237.43 -164,-1230.55L-164,0" style="fill:none;fill-rule:nonzero;stroke:rgb(63,64,68);stroke-width:7px;"/>
            </g>
            <g transform="matrix(1,0,0,1,1472,4068)">
                <path d="M0,-1216L-156.596,-1216C-160.685,-1216 -164,-1212.68 -164,-1208.6L-164,0" style="fill:none;fill-rule:nonzero;stroke:rgb(63,64,68);stroke-width:7px;"/>
            </g>
        </g>
    </g>
</svg>
