<?xml version="1.0" encoding="UTF-8" standalone="no"?>
<!DOCTYPE svg PUBLIC "-//W3C//DTD SVG 1.1//EN" "http://www.w3.org/Graphics/SVG/1.1/DTD/svg11.dtd">
<svg width="100%" height="100%" viewBox="0 0 276 133" version="1.1" xmlns="http://www.w3.org/2000/svg" xmlns:xlink="http://www.w3.org/1999/xlink" xml:space="preserve" xmlns:serif="http://www.serif.com/" style="fill-rule:evenodd;clip-rule:evenodd;stroke-linejoin:round;stroke-miterlimit:2;">
    <g transform="matrix(1,0,0,1,-256.832,-158.913)">
        <g transform="matrix(4.16667,0,0,4.16667,0,0)">
            <g transform="matrix(1,0,0,1,116.911,61.9928)">
                <path d="M0,-15.9L-3.97,-6.554L-7.733,-15.9L-9.449,-15.9L-4.942,-4.486L-6.72,0L-5.024,0L1.654,-15.9L0,-15.9Z" style="fill:white;fill-rule:nonzero;"/>
            </g>
            <g transform="matrix(1,0,0,1,83.748,48.3537)">
                <path d="M0,10.181C-1.484,12.026 -3.611,13.051 -6.131,13.099L-6.21,13.099C-8.358,13.099 -10.227,12.307 -11.771,10.743C-13.324,9.152 -14.109,7.227 -14.109,5.021C-14.109,2.742 -13.316,0.824 -11.75,-0.681C-10.248,-2.165 -8.386,-2.918 -6.215,-2.918L-6.131,-2.918C-4.558,-2.897 -3.179,-2.507 -1.92,-1.729C-1.283,-1.325 -0.718,-0.847 -0.23,-0.299L-1.336,0.89C-2.549,-0.582 -4.138,-1.3 -6.173,-1.3L-6.25,-1.3C-7.934,-1.3 -9.406,-0.681 -10.63,0.543C-11.84,1.753 -12.473,3.234 -12.513,4.943C-12.552,6.711 -11.938,8.272 -10.688,9.581C-9.42,10.87 -7.887,11.522 -6.131,11.522C-5.111,11.522 -4.098,11.25 -3.118,10.711C-2.331,10.272 -1.674,9.728 -1.17,9.091L0,10.181Z" style="fill:white;fill-rule:nonzero;"/>
            </g>
            <g transform="matrix(1,0,0,1,94.9966,52.5539)">
                <path d="M0,-0.093C0.016,1.298 -0.495,2.513 -1.518,3.52C-2.536,4.523 -3.76,5.022 -5.181,5.008C-6.574,4.992 -7.786,4.486 -8.783,3.504C-9.78,2.523 -10.285,1.329 -10.285,-0.046C-10.285,-1.432 -9.78,-2.632 -8.783,-3.613C-7.766,-4.614 -6.594,-5.1 -5.199,-5.1C-3.781,-5.1 -2.592,-4.624 -1.564,-3.643C-0.542,-2.668 -0.016,-1.473 0,-0.093M-0.501,-4.735C-1.83,-5.982 -3.421,-6.614 -5.231,-6.614C-7.038,-6.614 -8.614,-5.953 -9.917,-4.651C-11.198,-3.353 -11.847,-1.772 -11.847,0.051C-11.847,1.821 -11.18,3.36 -9.865,4.626C-8.542,5.884 -6.956,6.521 -5.15,6.521C-3.344,6.521 -1.768,5.861 -0.464,4.558C0.837,3.24 1.498,1.647 1.498,-0.175C1.498,-1.973 0.825,-3.508 -0.501,-4.735" style="fill:white;fill-rule:nonzero;"/>
            </g>
            <g transform="matrix(1,0,0,1,106.52,52.454)">
                <path d="M0,-0.328C0.046,1.02 -0.417,2.214 -1.376,3.221C-2.325,4.216 -3.492,4.721 -4.844,4.721L-7.642,4.721L-7.642,-5.048L-5.199,-5.048C-3.81,-5.048 -2.591,-4.59 -1.577,-3.684C-0.562,-2.779 -0.031,-1.65 0,-0.328M-0.405,-4.7C-1.708,-5.904 -3.385,-6.514 -5.393,-6.514L-9.139,-6.514L-9.139,6.186L-4.78,6.186C-3.059,6.186 -1.559,5.558 -0.321,4.321C0.928,3.088 1.562,1.582 1.562,-0.156C1.562,-1.965 0.9,-3.494 -0.405,-4.7" style="fill:white;fill-rule:nonzero;"/>
            </g>
            <g transform="matrix(1,0,0,1,87.9678,44.2832)">
                <path d="M0,19.416L13.465,19.416L13.697,19.654C16.408,22.448 20.046,23.987 23.94,23.987C31.813,23.987 38.219,17.582 38.219,9.709C38.219,1.835 31.813,-4.57 23.94,-4.57L-10.475,-4.57C-18.349,-4.57 -24.754,1.835 -24.754,9.709C-24.754,17.582 -18.349,23.987 -10.475,23.987C-6.579,23.987 -2.941,22.448 -0.232,19.655L0,19.416ZM23.94,25.56C19.729,25.56 15.788,23.939 12.805,20.989L0.661,20.989C-2.321,23.939 -6.262,25.56 -10.475,25.56C-19.216,25.56 -26.328,18.449 -26.328,9.709C-26.328,0.968 -19.216,-6.144 -10.475,-6.144L23.94,-6.144C32.681,-6.144 39.792,0.968 39.792,9.709C39.792,18.449 32.681,25.56 23.94,25.56" style="fill:white;fill-rule:nonzero;"/>
            </g>
        </g>
    </g>
</svg>
