<?xml version="1.0" encoding="UTF-8" standalone="no"?>
<!DOCTYPE svg PUBLIC "-//W3C//DTD SVG 1.1//EN" "http://www.w3.org/Graphics/SVG/1.1/DTD/svg11.dtd">
<svg width="100%" height="100%" viewBox="0 0 417 123" version="1.1" xmlns="http://www.w3.org/2000/svg" xmlns:xlink="http://www.w3.org/1999/xlink" xml:space="preserve" xmlns:serif="http://www.serif.com/" style="fill-rule:evenodd;clip-rule:evenodd;stroke-linejoin:round;stroke-miterlimit:2;">
    <g transform="matrix(1,0,0,1,-194.438,-16999)">
        <g transform="matrix(4.16667,0,0,4.16667,0,0)">
            <g transform="matrix(1,0,0,1,51.293,4094.6)">
                <path d="M0,-0.115C0.116,0.09 0.192,0.277 0.312,0.429C1.277,1.656 2.229,2.896 3.23,4.094C3.83,4.812 4.459,5.522 5.167,6.129C6.575,7.336 8.042,8.474 9.491,9.632C9.984,10.026 10.077,10.025 10.604,9.657C11.328,9.153 12.049,8.644 12.756,8.118C13.864,7.293 14.938,6.423 15.838,5.37C16.805,4.239 17.729,3.072 18.663,1.913C19.054,1.427 19.427,0.925 19.803,0.427C20.095,0.04 20.103,-0.145 19.835,-0.515C19.686,-0.723 19.522,-0.923 19.356,-1.119C18.27,-2.414 17.212,-3.734 16.086,-4.993C14.584,-6.671 12.797,-8.038 11.044,-9.436C10.746,-9.674 10.434,-9.894 10.108,-10.137C5.93,-7.602 2.844,-4.042 0,-0.115M10.175,-14.837C10.311,-14.667 10.468,-14.511 10.579,-14.326C11.427,-12.919 12.407,-11.606 13.542,-10.424C15.441,-8.447 17.35,-6.477 19.315,-4.566C20.792,-3.131 22.384,-1.821 24.164,-0.76C24.5,-0.56 24.772,-0.328 24.597,0.177C24.448,0.27 24.262,0.385 24.078,0.501C22.611,1.422 21.246,2.477 19.935,3.607C18.289,5.027 16.745,6.552 15.251,8.126C13.68,9.781 12.209,11.523 10.979,13.454C10.832,13.686 10.694,13.927 10.541,14.155C10.159,14.722 9.726,14.72 9.32,14.162C8.932,13.627 8.558,13.078 8.143,12.564C7.44,11.691 6.75,10.802 5.982,9.989C4.265,8.172 2.504,6.397 0.759,4.606C-0.475,3.34 -1.766,2.138 -3.21,1.113C-3.555,0.868 -3.914,0.643 -4.26,0.4C-4.393,0.306 -4.506,0.186 -4.628,0.077L-4.628,-0.365C-4.479,-0.494 -4.344,-0.649 -4.177,-0.75C-2.426,-1.813 -0.828,-3.082 0.634,-4.505C2.542,-6.363 4.397,-8.277 6.256,-10.187C7.515,-11.481 8.595,-12.918 9.542,-14.456C9.626,-14.594 9.742,-14.71 9.844,-14.837L10.175,-14.837Z" style="fill:white;fill-rule:nonzero;"/>
            </g>
        </g>
        <g transform="matrix(4.16667,0,0,4.16667,0,0)">
            <g transform="matrix(1,0,0,1,126.486,4107.4)">
                <path d="M0,-21.882L0,-17.746C-0.723,-17.681 -1.417,-17.721 -2.109,-17.714C-2.809,-17.707 -3.508,-17.713 -4.208,-17.713L-10.557,-17.713C-10.572,-16.184 -10.563,-14.705 -10.564,-13.171C-9.879,-13.127 -9.241,-13.153 -8.604,-13.149C-7.941,-13.145 -7.279,-13.149 -6.616,-13.149L-0.746,-13.149L-0.746,-8.887L-10.46,-8.887C-10.586,-8.467 -10.625,-5.316 -10.521,-4.344C-10.047,-4.274 -9.556,-4.319 -9.068,-4.312C-8.571,-4.304 -8.074,-4.31 -7.577,-4.31L-0.022,-4.31C0.086,-3.831 0.019,-3.374 0.03,-2.924C0.043,-2.445 0.033,-1.966 0.033,-1.488L0.033,-0.139C-0.421,-0.03 -16.161,0 -16.909,-0.099C-16.921,-0.28 -16.944,-0.474 -16.945,-0.668C-16.948,-2.711 -16.947,-4.754 -16.947,-6.797C-16.946,-11.601 -16.946,-16.405 -16.946,-21.209L-16.946,-21.882L0,-21.882Z" style="fill:white;fill-rule:nonzero;"/>
            </g>
        </g>
        <g transform="matrix(4.16667,0,0,4.16667,0,0)">
            <g transform="matrix(1,0,0,1,95.7676,4098.52)">
                <path d="M0,-4.276L9.424,-4.276C9.568,-3.862 9.609,-0.894 9.495,-0.012C8.72,0.028 7.934,0.002 7.149,0.006C6.357,0.011 5.566,0.007 4.775,0.007L0.05,0.007C-0.053,0.462 -0.065,3.941 0.034,4.563C1.174,4.58 2.327,4.569 3.479,4.571C4.658,4.573 5.835,4.572 7.014,4.572L10.472,4.572C10.583,4.991 10.608,8.136 10.512,8.804L-6.321,8.804L-6.321,-12.947C-5.928,-13.052 9.807,-13.08 10.528,-12.975L10.528,-8.852C10.345,-8.845 10.15,-8.832 9.957,-8.832C6.846,-8.83 3.736,-8.831 0.625,-8.831L0,-8.831L0,-4.276Z" style="fill:white;fill-rule:nonzero;"/>
            </g>
        </g>
        <g transform="matrix(4.16667,0,0,4.16667,0,0)">
            <g transform="matrix(1,0,0,1,146.624,4089.67)">
                <path d="M0,13.417L0,17.65L-16.532,17.65L-16.532,-4.104C-16.136,-4.205 -0.71,-4.233 -0.045,-4.137C0.044,-3.733 0.074,-1.011 -0.004,-0.043C-0.424,0.073 -0.864,-0.001 -1.297,0.012C-1.738,0.025 -2.181,0.015 -2.622,0.015L-10.498,0.015C-10.607,0.443 -10.633,3.773 -10.539,4.53C-10.006,4.634 -9.457,4.563 -8.914,4.576C-8.38,4.589 -7.846,4.579 -7.312,4.579L-0.771,4.579C-0.634,5.057 -0.628,8.323 -0.761,8.835L-10.484,8.835C-10.61,9.258 -10.647,12.378 -10.547,13.369C-10.073,13.465 -9.58,13.404 -9.093,13.415C-8.578,13.425 -8.062,13.417 -7.547,13.417L0,13.417Z" style="fill:white;fill-rule:nonzero;"/>
            </g>
        </g>
        <g transform="matrix(4.16667,0,0,4.16667,0,0)">
            <g transform="matrix(-1,0,0,1,80.3578,4085.44)">
                <path d="M-5.798,21.877L0.094,21.877L0.094,0.128C-0.308,0.024 -5.163,0 -5.791,0.093C-5.881,0.518 -5.892,21.341 -5.798,21.877" style="fill:white;fill-rule:nonzero;"/>
            </g>
        </g>
        <g transform="matrix(4.16667,0,0,4.16667,0,0)">
            <g transform="matrix(1,0,0,1,60.7461,4091.99)">
                <path d="M0,5.108C-0.152,5.531 -0.328,8.798 -0.215,9.486L1.833,9.486C1.864,8.009 1.639,6.585 1.588,5.108L0,5.108ZM1.482,3.772L1.482,-0.285C1.818,-0.369 2.155,-0.217 2.487,-0.385C1.851,-1.94 1.254,-3.482 0.573,-5.088C0.251,-4.208 -0.031,-3.433 -0.316,-2.659C-0.597,-1.896 -0.898,-1.141 -1.152,-0.328L-0.07,-0.328C-0.028,1.063 -0.09,2.434 -0.025,3.809C0.416,3.809 0.795,3.811 1.175,3.807C1.263,3.807 1.351,3.788 1.482,3.772M-3.106,-0.753C-3.396,-0.635 -3.621,-0.556 -3.835,-0.452C-4.183,-0.285 -4.544,-0.132 -4.862,0.082C-5.377,0.431 -5.896,0.789 -6.353,1.209C-6.856,1.67 -6.866,2.271 -6.409,2.778C-6.167,3.045 -5.864,3.272 -5.555,3.461C-4.841,3.895 -4.04,4.108 -3.232,4.294C-2.177,4.538 -1.117,4.74 -0.029,4.786C1.266,4.84 2.535,4.628 3.8,4.418C4.638,4.279 5.432,3.967 6.125,3.457C6.647,3.072 7.1,2.624 7.346,1.953C7.217,1.785 7.107,1.589 6.95,1.445C6.651,1.175 6.325,0.936 6.012,0.68C5.996,0.667 6.003,0.624 6,0.605C6.149,0.558 6.292,0.512 6.483,0.452C5.866,0.088 3.907,-0.328 3.269,-0.245C3.293,0.182 3.478,0.547 3.667,0.925C3.799,0.903 3.911,0.9 4.013,0.867C4.629,0.661 5.132,0.87 5.572,1.29C6.067,1.762 6.074,2.226 5.53,2.638C5.156,2.923 4.728,3.163 4.289,3.333C3.08,3.801 1.813,4.005 0.517,3.999C0.115,3.997 -0.287,3.936 -0.689,3.906C-1.654,3.833 -2.567,3.571 -3.423,3.129C-3.813,2.929 -4.21,2.712 -4.335,2.208C-4.183,1.747 -3.826,1.457 -3.403,1.265C-2.886,1.031 -2.345,0.849 -1.816,0.642C-1.709,0.6 -1.608,0.547 -1.465,0.481C-2.044,0.046 -2.57,-0.35 -3.106,-0.753M0.588,11.754C-0.041,11.261 -0.672,10.79 -1.278,10.287C-2.339,9.407 -3.429,8.555 -4.423,7.605C-5.594,6.486 -6.563,5.181 -7.557,3.903C-7.905,3.456 -8.25,3.007 -8.607,2.546C-6,-1.003 -3.171,-4.267 0.591,-6.646C4.171,-4.136 7.201,-1.023 9.798,2.578C8.969,3.638 8.152,4.7 7.314,5.746C6.855,6.319 6.355,6.861 5.888,7.428C5.251,8.199 4.508,8.854 3.728,9.471C2.72,10.268 1.693,11.039 0.588,11.754" style="fill:white;fill-rule:nonzero;"/>
            </g>
        </g>
    </g>
</svg>
