<?xml version="1.0" encoding="UTF-8" standalone="no"?>
<!DOCTYPE svg PUBLIC "-//W3C//DTD SVG 1.1//EN" "http://www.w3.org/Graphics/SVG/1.1/DTD/svg11.dtd">
<svg width="100%" height="100%" viewBox="0 0 6164 5654" version="1.1" xmlns="http://www.w3.org/2000/svg" xmlns:xlink="http://www.w3.org/1999/xlink" xml:space="preserve" xmlns:serif="http://www.serif.com/" style="fill-rule:evenodd;clip-rule:evenodd;stroke-linecap:round;stroke-linejoin:round;stroke-miterlimit:10;">
    <g transform="matrix(1,0,0,1,333.84,-5010.42)">
        <g transform="matrix(4.16667,0,0,4.16667,0,0)">
            <g opacity="0.5">
                <g transform="matrix(1,0,0,1,1399,2216.18)">
                    <path d="M0,-535.177L0,18.823L-518.896,250.653C-553.287,268.434 -594.224,268.199 -628.402,250.017L-1416.57,-169.116C-1500.5,-213.746 -1499.83,-334.246 -1415.42,-377.947L-627.269,-785.999C-593.697,-803.385 -553.82,-803.611 -520.051,-786.614L0,-535.177Z" style="fill:rgb(63,64,68);fill-rule:nonzero;"/>
                </g>
            </g>
            <g transform="matrix(1,0,0,1,-16,2505.5)">
                <path d="M0,-1299.5L137.376,-1299.5C152.08,-1299.5 164,-1287.58 164,-1272.88L164,-15.946C164,-7.139 156.86,0 148.054,0L-37.5,0" style="fill:none;fill-rule:nonzero;stroke:rgb(57,98,211);stroke-width:7px;"/>
            </g>
            <g transform="matrix(1,0,0,1,-67,2454.5)">
                <path d="M0,-1195.5L156.596,-1195.5C160.685,-1195.5 164,-1192.18 164,-1188.1L164,-7.67C164,-3.434 160.566,0 156.33,0L13.5,0" style="fill:none;fill-rule:nonzero;stroke:rgb(57,98,211);stroke-width:7px;"/>
            </g>
            <g opacity="0.5">
                <g transform="matrix(1,0,0,1,312.662,1437.3)">
                    <path d="M0,73.523L0,0.001C0,-7.46 -6.048,-13.508 -13.508,-13.508L-87.031,-13.508C-94.491,-13.508 -100.539,-7.46 -100.539,0.001L-100.539,73.523C-100.539,80.983 -94.491,87.031 -87.031,87.031L-13.508,87.031C-6.048,87.031 0,80.983 0,73.523" style="fill:rgb(141,72,181);fill-rule:nonzero;"/>
                </g>
            </g>
            <g opacity="0.5">
                <g transform="matrix(1,0,0,1,481.966,1408.85)">
                    <path d="M0,22.049C6.088,15.961 6.088,6.089 0,0.001C-6.089,-6.088 -15.96,-6.088 -22.048,0.001L-22.049,0.001C-28.137,6.089 -28.137,15.961 -22.049,22.049L-22.048,22.049C-15.96,28.137 -6.089,28.137 0,22.049" style="fill:rgb(141,72,181);fill-rule:nonzero;"/>
                </g>
            </g>
            <g opacity="0.7">
                <g transform="matrix(1,0,0,1,251,2030.59)">
                    <path d="M0,22.83L0,-0.001C0,-9.16 -7.425,-16.585 -16.585,-16.585L-39.415,-16.585C-48.575,-16.585 -56,-9.16 -56,-0.001L-56,22.83C-56,31.989 -48.575,39.415 -39.415,39.415L-16.585,39.415C-7.425,39.415 0,31.989 0,22.83" style="fill:rgb(57,98,211);fill-rule:nonzero;"/>
                </g>
            </g>
            <g opacity="0.7">
                <g transform="matrix(1,0,0,1,1224.14,1717.4)">
                    <path d="M0,-14.285L13.602,-27.887C17.546,-31.831 23.942,-31.831 27.887,-27.887L41.489,-14.285C45.433,-10.34 45.433,-3.945 41.489,-0L27.887,13.602C23.942,17.546 17.546,17.546 13.602,13.602L0,-0C-3.944,-3.945 -3.944,-10.34 0,-14.285" style="fill:rgb(57,98,211);fill-rule:nonzero;"/>
                </g>
            </g>
            <g opacity="0.7">
                <g transform="matrix(-1,0,0,1,1150.74,1578)">
                    <path d="M-0.001,-38.499C-10.632,-38.499 -19.25,-29.881 -19.25,-19.25C-19.25,-8.619 -10.632,0 -0.001,0C10.63,0 19.249,-8.619 19.249,-19.25C19.249,-29.881 10.63,-38.499 -0.001,-38.499" style="fill:rgb(57,98,211);fill-rule:nonzero;"/>
                </g>
            </g>
            <g opacity="0.7">
                <g transform="matrix(-1,0,0,1,254.748,2125.34)">
                    <path d="M0,-19.843C-5.479,-19.843 -9.921,-15.401 -9.921,-9.922C-9.921,-4.442 -5.479,0 0,0C5.479,0 9.921,-4.442 9.921,-9.922C9.921,-15.401 5.479,-19.843 0,-19.843" style="fill:rgb(57,98,211);fill-rule:nonzero;"/>
                </g>
            </g>
            <g opacity="0.7">
                <g transform="matrix(1,0,0,1,1204.04,1618.31)">
                    <path d="M0,54.852L-15.472,-2.89C-16.807,-7.872 -23.034,-9.54 -26.681,-5.893L-68.951,36.377C-72.598,40.023 -70.929,46.25 -65.947,47.585L-8.206,63.057C-3.224,64.392 1.335,59.833 0,54.852" style="fill:rgb(57,98,211);fill-rule:nonzero;"/>
                </g>
            </g>
            <g opacity="0.5">
                <g transform="matrix(1,0,0,1,1183.34,2490.03)">
                    <path d="M0,-11.604L-51.77,-41.493C-56.236,-44.072 -61.82,-40.849 -61.82,-35.691L-61.82,24.087C-61.82,29.245 -56.237,32.468 -51.77,29.889L0,0C4.466,-2.579 4.466,-9.025 0,-11.604" style="fill:rgb(141,72,181);fill-rule:nonzero;"/>
                </g>
            </g>
            <g opacity="0.7">
                <g transform="matrix(1,0,0,1,214.753,2148.35)">
                    <path d="M0,38.846L0,26.778C0,26.511 0.217,26.294 0.483,26.294L12.552,26.294C14.564,26.294 16.2,24.658 16.2,22.646L16.2,16.2C16.2,14.188 14.564,12.552 12.552,12.552L0.483,12.552C0.217,12.552 0,12.335 0,12.068L0,0C0,-2.012 -1.636,-3.648 -3.647,-3.648L-10.094,-3.648C-12.106,-3.648 -13.742,-2.012 -13.742,0L-13.742,12.068C-13.742,12.335 -13.959,12.552 -14.226,12.552L-26.294,12.552C-28.306,12.552 -29.942,14.188 -29.942,16.2L-29.942,22.646C-29.942,24.658 -28.306,26.294 -26.294,26.294L-14.226,26.294C-13.959,26.294 -13.742,26.511 -13.742,26.778L-13.742,38.846C-13.742,40.857 -12.106,42.494 -10.094,42.494L-3.647,42.494C-1.636,42.494 0,40.857 0,38.846" style="fill:rgb(57,98,211);fill-rule:nonzero;"/>
                </g>
            </g>
            <g opacity="0.5">
                <g transform="matrix(1,0,0,1,367.584,1387.41)">
                    <path d="M0,62.976L0,43.411C0,42.979 -0.351,42.627 -0.784,42.627L-20.349,42.627C-23.61,42.627 -26.263,39.974 -26.263,36.713L-26.263,26.262C-26.263,23.001 -23.61,20.349 -20.349,20.349L-0.784,20.349C-0.351,20.349 0,19.997 0,19.564L0,-0.001C0,-3.261 2.653,-5.914 5.914,-5.914L16.365,-5.914C19.626,-5.914 22.279,-3.261 22.279,-0.001L22.279,19.564C22.279,19.997 22.63,20.349 23.062,20.349L42.628,20.349C45.889,20.349 48.542,23.001 48.542,26.262L48.542,36.713C48.542,39.974 45.889,42.627 42.628,42.627L23.062,42.627C22.63,42.627 22.279,42.979 22.279,43.411L22.279,62.976C22.279,66.237 19.626,68.89 16.365,68.89L5.914,68.89C2.653,68.89 0,66.237 0,62.976" style="fill:rgb(141,72,181);fill-rule:nonzero;"/>
                </g>
            </g>
            <g opacity="0.5">
                <g transform="matrix(1,0,0,1,1237.14,2422.75)">
                    <path d="M0,123.08L51.988,71.092C57.264,65.817 57.264,57.263 51.988,51.988L0,0C-5.275,-5.275 -13.828,-5.275 -19.104,0L-71.092,51.988C-76.367,57.263 -76.367,65.817 -71.092,71.092L-19.104,123.08C-13.828,128.355 -5.275,128.355 0,123.08" style="fill:rgb(141,72,181);fill-rule:nonzero;"/>
                </g>
            </g>
            <g opacity="0.5">
                <g transform="matrix(1,0,0,1,1318.71,2513.15)">
                    <path d="M0,28.777L13.834,14.943C14.14,14.637 14.14,14.14 13.834,13.834L0,-0.001C-2.306,-2.306 -2.306,-6.058 0,-8.364L7.39,-15.754C9.696,-18.06 13.447,-18.06 15.753,-15.754L29.588,-1.919C29.894,-1.613 30.391,-1.614 30.697,-1.92L44.531,-15.754C46.837,-18.06 50.588,-18.06 52.894,-15.754L60.285,-8.364C62.59,-6.058 62.59,-2.306 60.285,-0.001L46.45,13.834C46.145,14.139 46.144,14.637 46.45,14.943L60.285,28.777C62.59,31.083 62.59,34.835 60.285,37.141L52.895,44.53C50.589,46.836 46.837,46.837 44.531,44.531L30.696,30.696C30.391,30.39 29.894,30.39 29.588,30.696L15.753,44.53C13.448,46.836 9.696,46.837 7.39,44.531L0,37.141C-2.306,34.835 -2.306,31.083 0,28.777" style="fill:rgb(141,72,181);fill-rule:nonzero;"/>
                </g>
            </g>
        </g>
    </g>
</svg>
