<?xml version="1.0" encoding="UTF-8" standalone="no"?>
<!DOCTYPE svg PUBLIC "-//W3C//DTD SVG 1.1//EN" "http://www.w3.org/Graphics/SVG/1.1/DTD/svg11.dtd">
<svg width="100%" height="100%" viewBox="0 0 742 1175" version="1.1" xmlns="http://www.w3.org/2000/svg" xmlns:xlink="http://www.w3.org/1999/xlink" xml:space="preserve" xmlns:serif="http://www.serif.com/" style="fill-rule:evenodd;clip-rule:evenodd;stroke-linejoin:round;stroke-miterlimit:2;">
    <g transform="matrix(1,0,0,1,-433.333,-15175)">
        <g transform="matrix(4.16667,0,0,4.16667,0,0)">
            <g opacity="0.5">
                <g transform="matrix(0,-1,-1,0,212.5,3642)">
                    <path d="M-28.5,-28.5C-12.76,-28.5 0,-15.74 0,0C0,15.74 -12.76,28.5 -28.5,28.5C-44.24,28.5 -57,15.74 -57,0C-57,-15.74 -44.24,-28.5 -28.5,-28.5" style="fill:rgb(141,72,181);fill-rule:nonzero;"/>
                </g>
            </g>
            <g opacity="0.5">
                <g transform="matrix(1,0,0,1,175,3771.59)">
                    <path d="M0,37.83L0,0C0,-9.16 -7.425,-16.585 -16.585,-16.585L-54.415,-16.585C-63.575,-16.585 -71,-9.16 -71,0L-71,37.83C-71,46.99 -63.575,54.415 -54.415,54.415L-16.585,54.415C-7.425,54.415 0,46.99 0,37.83" style="fill:rgb(141,72,181);fill-rule:nonzero;"/>
                </g>
            </g>
            <g opacity="0.5">
                <g transform="matrix(1,0,0,1,282,3812.22)">
                    <path d="M0,81.566L0,0.001C0,-16.688 -13.529,-30.217 -30.217,-30.217L-111.783,-30.217C-128.471,-30.217 -142,-16.688 -142,0.001L-142,81.566C-142,98.254 -128.471,111.783 -111.783,111.783L-30.217,111.783C-13.529,111.783 0,98.254 0,81.566" style="fill:rgb(141,72,181);fill-rule:nonzero;"/>
                </g>
            </g>
        </g>
    </g>
</svg>
