<?xml version="1.0" encoding="UTF-8" standalone="no"?>
<!DOCTYPE svg PUBLIC "-//W3C//DTD SVG 1.1//EN" "http://www.w3.org/Graphics/SVG/1.1/DTD/svg11.dtd">
<svg width="100%" height="100%" viewBox="0 0 4870 4993" version="1.1" xmlns="http://www.w3.org/2000/svg" xmlns:xlink="http://www.w3.org/1999/xlink" xml:space="preserve" xmlns:serif="http://www.serif.com/" style="fill-rule:evenodd;clip-rule:evenodd;stroke-linejoin:round;stroke-miterlimit:2;">
    <g transform="matrix(1,0,0,1,-883.846,-5756.24)">
        <g transform="matrix(4.16667,0,0,4.16667,0,0)">
            <g opacity="0.5">
                <g transform="matrix(1,0,0,1,312.662,1437.3)">
                    <path d="M0,73.523L0,0.001C0,-7.46 -6.048,-13.508 -13.508,-13.508L-87.031,-13.508C-94.491,-13.508 -100.539,-7.46 -100.539,0.001L-100.539,73.523C-100.539,80.983 -94.491,87.031 -87.031,87.031L-13.508,87.031C-6.048,87.031 0,80.983 0,73.523" style="fill:rgb(141,72,181);fill-rule:nonzero;"/>
                </g>
            </g>
            <g opacity="0.5">
                <g transform="matrix(1,0,0,1,481.966,1408.85)">
                    <path d="M0,22.049C6.088,15.961 6.088,6.089 0,0.001C-6.089,-6.088 -15.96,-6.088 -22.048,0.001L-22.049,0.001C-28.137,6.089 -28.137,15.961 -22.049,22.049L-22.048,22.049C-15.96,28.137 -6.089,28.137 0,22.049" style="fill:rgb(141,72,181);fill-rule:nonzero;"/>
                </g>
            </g>
            <g opacity="0.5">
                <g transform="matrix(1,0,0,1,1183.34,2490.03)">
                    <path d="M0,-11.604L-51.77,-41.493C-56.236,-44.072 -61.82,-40.849 -61.82,-35.691L-61.82,24.087C-61.82,29.245 -56.237,32.468 -51.77,29.889L0,0C4.466,-2.579 4.466,-9.025 0,-11.604" style="fill:rgb(141,72,181);fill-rule:nonzero;"/>
                </g>
            </g>
            <g opacity="0.5">
                <g transform="matrix(1,0,0,1,367.584,1387.41)">
                    <path d="M0,62.976L0,43.411C0,42.979 -0.351,42.627 -0.784,42.627L-20.349,42.627C-23.61,42.627 -26.263,39.974 -26.263,36.713L-26.263,26.262C-26.263,23.001 -23.61,20.349 -20.349,20.349L-0.784,20.349C-0.351,20.349 0,19.997 0,19.564L0,-0.001C0,-3.261 2.653,-5.914 5.914,-5.914L16.365,-5.914C19.626,-5.914 22.279,-3.261 22.279,-0.001L22.279,19.564C22.279,19.997 22.63,20.349 23.062,20.349L42.628,20.349C45.889,20.349 48.542,23.001 48.542,26.262L48.542,36.713C48.542,39.974 45.889,42.627 42.628,42.627L23.062,42.627C22.63,42.627 22.279,42.979 22.279,43.411L22.279,62.976C22.279,66.237 19.626,68.89 16.365,68.89L5.914,68.89C2.653,68.89 0,66.237 0,62.976" style="fill:rgb(141,72,181);fill-rule:nonzero;"/>
                </g>
            </g>
            <g opacity="0.5">
                <g transform="matrix(1,0,0,1,1237.14,2422.75)">
                    <path d="M0,123.08L51.988,71.092C57.264,65.817 57.264,57.263 51.988,51.988L0,0C-5.275,-5.275 -13.828,-5.275 -19.104,0L-71.092,51.988C-76.367,57.263 -76.367,65.817 -71.092,71.092L-19.104,123.08C-13.828,128.355 -5.275,128.355 0,123.08" style="fill:rgb(141,72,181);fill-rule:nonzero;"/>
                </g>
            </g>
            <g opacity="0.5">
                <g transform="matrix(1,0,0,1,1034.92,2539)">
                    <path d="M0,40.579L21.335,40.579C26.649,40.579 30.957,36.271 30.957,30.957L30.957,9.622C30.957,4.308 26.649,0 21.335,0L0,0C-5.314,0 -9.622,4.308 -9.622,9.622L-9.622,30.957C-9.622,36.271 -5.314,40.579 0,40.579" style="fill:rgb(141,72,181);fill-rule:nonzero;"/>
                </g>
            </g>
            <g opacity="0.5">
                <g transform="matrix(1,0,0,1,1318.71,2513.15)">
                    <path d="M0,28.777L13.834,14.943C14.14,14.637 14.14,14.14 13.834,13.834L0,-0.001C-2.306,-2.306 -2.306,-6.058 0,-8.364L7.39,-15.754C9.696,-18.06 13.447,-18.06 15.753,-15.754L29.588,-1.919C29.894,-1.613 30.391,-1.614 30.697,-1.92L44.531,-15.754C46.837,-18.06 50.588,-18.06 52.894,-15.754L60.285,-8.364C62.59,-6.058 62.59,-2.306 60.285,-0.001L46.45,13.834C46.145,14.139 46.144,14.637 46.45,14.943L60.285,28.777C62.59,31.083 62.59,34.835 60.285,37.141L52.895,44.53C50.589,46.836 46.837,46.837 44.531,44.531L30.696,30.696C30.391,30.39 29.894,30.39 29.588,30.696L15.753,44.53C13.448,46.836 9.696,46.837 7.39,44.531L0,37.141C-2.306,34.835 -2.306,31.083 0,28.777" style="fill:rgb(141,72,181);fill-rule:nonzero;"/>
                </g>
            </g>
        </g>
    </g>
</svg>
