<?xml version="1.0" encoding="UTF-8" standalone="no"?>
<!DOCTYPE svg PUBLIC "-//W3C//DTD SVG 1.1//EN" "http://www.w3.org/Graphics/SVG/1.1/DTD/svg11.dtd">
<svg width="100%" height="100%" viewBox="0 0 511 160" version="1.1" xmlns="http://www.w3.org/2000/svg" xmlns:xlink="http://www.w3.org/1999/xlink" xml:space="preserve" xmlns:serif="http://www.serif.com/" style="fill-rule:evenodd;clip-rule:evenodd;stroke-linejoin:round;stroke-miterlimit:2;">
    <g transform="matrix(1,0,0,1,-763.408,-16973.8)">
        <g transform="matrix(4.16667,0,0,4.16667,0,0)">
            <g transform="matrix(1,0,0,1,184.994,4092.23)">
                <path d="M0,-4.897L0,-4.252C0,-1.163 -0.004,1.927 0.003,5.017C0.005,5.679 0.006,6.337 0.087,7.003C0.205,7.979 0.498,8.877 0.997,9.706C1.212,10.063 1.5,10.39 1.804,10.68C2.247,11.103 2.784,11.399 3.347,11.639C4.08,11.953 4.835,12.179 5.641,12.189C6.011,12.193 6.381,12.181 6.75,12.194C7.666,12.228 8.54,12.073 9.4,11.749C10.304,11.409 11.056,10.895 11.661,10.141C12.541,9.045 12.967,7.77 12.983,6.402C13.027,2.759 13,-0.886 12.998,-4.531C12.998,-4.652 12.959,-4.773 12.94,-4.884C11.913,-4.97 9.32,-4.937 8.889,-4.825L8.889,5.478C8.889,6.049 8.906,6.622 8.771,7.184C8.569,8.027 8.209,8.74 7.333,9.084C6.986,9.221 6.642,9.165 6.295,9.186C5.493,9.237 4.979,8.809 4.598,8.162C4.209,7.503 4.121,6.769 4.119,6.03C4.106,2.589 4.113,-0.852 4.111,-4.293C4.111,-4.489 4.094,-4.685 4.085,-4.897L0,-4.897ZM9.062,-7.578C9.478,-8.014 9.709,-8.502 9.973,-8.964C10.945,-10.668 11.762,-12.448 12.523,-14.255C13.069,-15.548 13.626,-16.837 14.183,-18.126C14.231,-18.241 14.311,-18.342 14.417,-18.516C14.476,-18.38 14.523,-18.31 14.534,-18.235C14.549,-18.126 14.539,-18.014 14.539,-17.902C14.538,-7.777 14.536,2.347 14.534,12.472C14.534,12.62 14.549,12.771 14.524,12.915C14.495,13.092 14.431,13.262 14.395,13.389C14.079,13.587 13.79,13.614 13.489,13.614C8.769,13.612 4.049,13.613 -0.671,13.613C-0.819,13.613 -0.971,13.619 -1.114,13.59C-1.559,13.501 -1.737,13.288 -1.766,12.825C-1.778,12.622 -1.776,12.418 -1.776,12.214L-1.776,-5.999C-1.776,-6.221 -1.769,-6.443 -1.767,-6.666C-1.765,-6.981 -1.658,-7.243 -1.326,-7.453C-1.049,-7.46 -0.718,-7.478 -0.387,-7.478C2.408,-7.48 5.203,-7.475 7.998,-7.482C8.363,-7.483 8.728,-7.546 9.062,-7.578" style="fill:white;fill-rule:nonzero;"/>
            </g>
        </g>
        <g transform="matrix(4.16667,0,0,4.16667,0,0)">
            <g transform="matrix(1,0,0,1,207.587,4092.24)">
                <path d="M0,-4.922L-2.822,-4.922C-3.284,-4.922 -3.748,-4.935 -4.209,-4.918C-4.662,-4.902 -5.123,-4.991 -5.595,-4.85L-5.595,-4.329C-5.588,1.056 -5.582,6.441 -5.574,11.826C-5.574,11.842 -5.562,11.86 -5.552,11.875C-5.541,11.89 -5.525,11.9 -5.508,11.916C-4.914,11.993 -2.504,11.975 -2.046,11.879L-2.046,11.293C-2.046,7.851 -2.043,4.409 -2.05,0.966C-2.05,0.619 -2.115,0.272 -2.135,-0.076C-2.14,-0.161 -2.089,-0.249 -2.052,-0.378C-0.717,3.769 0.598,7.852 1.909,11.924C2.839,12.013 7.079,11.977 7.477,11.877L7.477,-4.855C6.875,-4.965 4.364,-4.945 3.958,-4.822L3.958,-4.227C3.958,-0.785 3.957,2.657 3.958,6.099C3.958,6.486 3.919,6.875 4.053,7.253C4.072,7.308 4.035,7.383 4.004,7.568C2.654,3.356 1.34,-0.741 0,-4.922M-7.28,-18.531C-7.161,-18.316 -7.074,-18.184 -7.011,-18.041C-6.042,-15.824 -5.106,-13.591 -4.094,-11.393C-3.578,-10.271 -2.916,-9.217 -2.338,-8.122C-2.09,-7.65 -1.704,-7.483 -1.204,-7.484C-0.686,-7.485 -0.168,-7.48 0.351,-7.48C2.757,-7.481 5.163,-7.483 7.569,-7.485L8.367,-7.485C8.809,-7.223 8.951,-6.904 8.937,-6.502C8.933,-6.373 8.937,-6.243 8.937,-6.113L8.937,12.211C8.937,12.414 8.939,12.619 8.927,12.822C8.905,13.193 8.727,13.458 8.35,13.536C8.118,13.583 7.876,13.605 7.638,13.605C4.807,13.609 1.975,13.607 -0.857,13.607C-2.708,13.606 -4.559,13.604 -6.41,13.608C-6.753,13.609 -7.08,13.588 -7.304,13.28C-7.379,12.865 -7.448,-17.236 -7.373,-18.251C-7.368,-18.314 -7.333,-18.375 -7.28,-18.531" style="fill:white;fill-rule:nonzero;"/>
            </g>
        </g>
        <g transform="matrix(4.16667,0,0,4.16667,0,0)">
            <g transform="matrix(1,0,0,1,199.694,4109.87)">
                <path d="M0,-1.46C-2.595,-0.78 -5.181,-0.102 -7.768,0.574C-9.463,1.017 -11.161,1.451 -12.853,1.902C-13.182,1.989 -13.468,1.99 -13.725,1.765C-13.867,1.487 -13.821,1.204 -13.777,0.936C-13.67,0.282 -13.543,-0.37 -13.406,-1.019C-13.291,-1.559 -13.151,-2.095 -13.019,-2.631C-12.922,-3.021 -12.682,-3.295 -12.304,-3.414C-12.061,-3.491 -11.798,-3.508 -11.543,-3.546C-11.471,-3.557 -11.396,-3.548 -11.321,-3.548C-3.642,-3.548 4.038,-3.549 11.718,-3.544C11.991,-3.543 12.269,-3.498 12.537,-3.44C12.669,-3.412 12.785,-3.307 12.886,-3.249C13.184,-2.019 13.474,-0.837 13.753,0.347C13.863,0.811 14.018,1.273 13.921,1.816C13.821,1.891 13.693,1.986 13.545,2.097C11.377,1.519 9.222,0.944 7.066,0.371C5.444,-0.061 3.822,-0.492 2.199,-0.917C1.485,-1.103 0.767,-1.271 0,-1.46" style="fill:white;fill-rule:nonzero;"/>
            </g>
        </g>
        <g transform="matrix(4.16667,0,0,4.16667,0,0)">
            <g transform="matrix(1,0,0,1,234.121,4089.73)">
                <path d="M0,0.943C0.173,0.534 0.075,0.168 0.093,-0.185C0.112,-0.555 0.097,-0.925 0.097,-1.295L0.097,-3.481C0.871,-3.543 1.601,-3.497 2.357,-3.512L2.357,4.453C1.962,4.458 1.58,4.465 1.198,4.467C0.829,4.47 0.46,4.468 0.048,4.468C-0.934,3.031 -1.918,1.591 -2.953,0.078C-3.126,0.62 -3.023,1.092 -3.042,1.553C-3.061,2.014 -3.046,2.478 -3.046,2.94L-3.046,4.369C-3.445,4.489 -4.451,4.513 -5.278,4.43L-5.278,-3.452C-4.931,-3.57 -4.56,-3.495 -4.198,-3.509C-3.829,-3.522 -3.459,-3.512 -3.042,-3.512C-2.042,-2.048 -1.04,-0.579 0,0.943" style="fill:white;fill-rule:nonzero;"/>
            </g>
        </g>
        <g transform="matrix(4.16667,0,0,4.16667,0,0)">
            <g transform="matrix(1,0,0,1,262.7,4096.75)">
                <path d="M0,7.968L-2.292,7.968C-3.277,6.533 -4.278,5.075 -5.334,3.536C-5.368,3.727 -5.404,3.837 -5.404,3.947C-5.408,5.094 -5.406,6.242 -5.406,7.389L-5.406,7.976C-6.152,8.01 -6.846,7.997 -7.533,7.986C-7.636,7.551 -7.671,0.987 -7.577,0.034C-7.223,0.028 -6.86,0.018 -6.497,0.015C-6.127,0.011 -5.758,0.014 -5.368,0.014C-4.368,1.483 -3.373,2.946 -2.335,4.471C-2.198,3.929 -2.28,3.454 -2.265,2.987C-2.25,2.506 -2.262,2.025 -2.262,1.544L-2.262,0.076C-1.89,-0.042 -1.521,0.029 -1.16,0.017C-0.791,0.004 -0.422,0.014 -0.06,0.014C0.054,0.47 0.096,6.376 0,7.968" style="fill:white;fill-rule:nonzero;"/>
            </g>
        </g>
        <g transform="matrix(4.16667,0,0,4.16667,0,0)">
            <g transform="matrix(1,0,0,1,282.408,4102.67)">
                <path d="M0,-3.798C-0.16,-4.136 -0.406,-4.31 -0.71,-4.342C-1.237,-4.399 -1.768,-4.414 -2.287,-4.336C-2.395,-3.746 -2.378,-2.993 -2.244,-2.584C-2.003,-2.584 -1.746,-2.572 -1.491,-2.588C-1.271,-2.601 -1.054,-2.646 -0.835,-2.675C-0.464,-2.724 -0.172,-2.889 0,-3.258L0,-3.798ZM0.346,2.079C-0.053,1.329 -0.42,0.626 -0.8,-0.07C-1.02,-0.474 -1.222,-0.898 -1.678,-1.136C-1.862,-1.153 -2.064,-1.172 -2.308,-1.194C-2.404,-0.665 -2.34,-0.134 -2.351,0.392C-2.362,0.927 -2.354,1.461 -2.354,2.04C-2.756,2.115 -3.141,2.07 -3.521,2.077C-3.908,2.085 -4.295,2.079 -4.735,2.079C-4.796,1.395 -4.755,0.735 -4.763,0.077C-4.77,-0.589 -4.764,-1.255 -4.764,-1.921L-4.764,-5.902L-4.171,-5.902C-3.006,-5.902 -1.841,-5.913 -0.676,-5.896C-0.18,-5.889 0.319,-5.852 0.811,-5.781C1.523,-5.678 2.054,-5.279 2.29,-4.598C2.713,-3.37 2.315,-2.047 0.933,-1.594C0.815,-1.555 0.705,-1.493 0.495,-1.398C1.427,-1.116 1.8,-0.412 2.16,0.305C2.45,0.882 2.746,1.455 3.063,2.079L0.346,2.079Z" style="fill:white;fill-rule:nonzero;"/>
            </g>
        </g>
        <g transform="matrix(4.16667,0,0,4.16667,0,0)">
            <g transform="matrix(1,0,0,1,262.105,4090.88)">
                <path d="M0,-1.373C0.629,-1.327 1.176,-1.306 1.717,-1.453C2.176,-1.578 2.447,-1.915 2.425,-2.323C2.404,-2.717 2.145,-3.01 1.679,-3.087C1.151,-3.175 0.617,-3.135 0.11,-3.115C0.055,-3.021 0.004,-2.974 0.003,-2.926C-0.002,-2.436 0,-1.946 0,-1.373M5.442,3.298L2.711,3.298C2.401,2.725 2.086,2.141 1.768,1.559C1.6,1.251 1.432,0.942 1.252,0.641C0.946,0.127 0.68,0.02 0.024,0.145C-0.065,0.666 -0.005,1.2 -0.016,1.731C-0.027,2.245 -0.019,2.759 -0.019,3.297L-2.291,3.297C-2.313,3.213 -2.354,3.128 -2.354,3.044C-2.357,0.565 -2.357,-1.915 -2.355,-4.394C-2.355,-4.463 -2.333,-4.534 -2.316,-4.633C-2.16,-4.642 -2.017,-4.657 -1.873,-4.657C-0.522,-4.658 0.829,-4.671 2.179,-4.645C2.597,-4.638 3.021,-4.557 3.429,-4.453C4.537,-4.17 4.922,-3.145 4.81,-2.165C4.7,-1.207 4.151,-0.588 3.226,-0.308C3.123,-0.276 3.023,-0.233 2.901,-0.187C2.956,-0.129 2.985,-0.066 3.028,-0.055C3.575,0.083 3.917,0.473 4.175,0.928C4.603,1.679 4.993,2.452 5.442,3.298" style="fill:white;fill-rule:nonzero;"/>
            </g>
        </g>
        <g transform="matrix(4.16667,0,0,4.16667,0,0)">
            <g transform="matrix(1,0,0,1,283.598,4087.96)">
                <path d="M0,4.488C0.405,4.488 0.772,4.498 1.14,4.486C1.749,4.465 2.212,4.121 2.356,3.544C2.57,2.689 2.56,1.832 2.309,0.98C2.182,0.55 1.891,0.287 1.496,0.138C1.004,-0.048 0.494,-0.039 -0.011,0.041C-0.112,0.57 -0.103,4.044 0,4.488M-2.451,-1.719C-2.311,-1.726 -2.167,-1.74 -2.022,-1.74C-0.875,-1.741 0.272,-1.745 1.42,-1.734C1.919,-1.729 2.402,-1.637 2.878,-1.461C3.638,-1.18 4.153,-0.662 4.477,0.06C4.744,0.655 4.896,1.281 4.901,1.938C4.905,2.529 4.927,3.121 4.783,3.702C4.505,4.816 3.884,5.637 2.775,6.023C2.481,6.125 2.165,6.209 1.858,6.213C0.435,6.233 -0.989,6.222 -2.409,6.222C-2.538,5.757 -2.565,0.306 -2.451,-1.719" style="fill:white;fill-rule:nonzero;"/>
            </g>
        </g>
        <g transform="matrix(4.16667,0,0,4.16667,0,0)">
            <g transform="matrix(1,0,0,1,221.847,4098.52)">
                <path d="M0,4.477C0.418,4.477 0.784,4.488 1.149,4.474C1.741,4.452 2.103,4.177 2.303,3.616C2.599,2.786 2.543,1.944 2.35,1.109C2.193,0.432 1.666,0.031 0.951,0C0.64,-0.013 0.329,-0.002 -0.015,-0.002C-0.034,0.081 -0.078,0.185 -0.078,0.289C-0.083,1.581 -0.083,2.874 -0.077,4.167C-0.077,4.286 -0.019,4.404 0,4.477M-2.461,6.22L-2.461,-1.709C-2.375,-1.721 -2.273,-1.749 -2.171,-1.75C-0.915,-1.751 0.342,-1.753 1.598,-1.745C2.1,-1.742 2.579,-1.635 3.041,-1.422C4.038,-0.964 4.535,-0.127 4.767,0.88C4.98,1.805 4.967,2.751 4.774,3.682C4.585,4.593 4.088,5.306 3.272,5.771C2.784,6.05 2.249,6.208 1.689,6.215C0.323,6.23 -1.044,6.22 -2.461,6.22" style="fill:white;fill-rule:nonzero;"/>
            </g>
        </g>
        <g transform="matrix(4.16667,0,0,4.16667,0,0)">
            <g transform="matrix(1,0,0,1,300.763,4087.98)">
                <path d="M0,4.485C0.425,4.621 0.805,4.489 1.187,4.461C1.867,4.41 2.311,3.998 2.418,3.328C2.527,2.651 2.562,1.971 2.417,1.294C2.309,0.789 2.116,0.334 1.58,0.14C1.069,-0.044 0.545,-0.072 0.02,0.013C-0.065,0.46 -0.079,3.907 0,4.485M-2.431,6.197L-2.431,-1.734C-2.293,-1.745 -2.169,-1.763 -2.046,-1.763C-0.9,-1.765 0.246,-1.775 1.392,-1.755C1.774,-1.748 2.165,-1.693 2.537,-1.6C3.59,-1.337 4.252,-0.636 4.614,0.366C4.772,0.802 4.815,1.258 4.868,1.718C4.948,2.407 4.878,3.076 4.736,3.74C4.429,5.176 3.401,6.095 1.9,6.18C0.483,6.26 -0.942,6.197 -2.431,6.197" style="fill:white;fill-rule:nonzero;"/>
            </g>
        </g>
        <g transform="matrix(4.16667,0,0,4.16667,0,0)">
            <g transform="matrix(1,0,0,1,271.927,4100.72)">
                <path d="M0,0.033C-0.05,-0.47 -0.024,-0.966 -0.281,-1.432C-0.648,-2.1 -1.22,-2.352 -1.941,-2.299C-2.613,-2.249 -3.074,-1.88 -3.306,-1.248C-3.566,-0.536 -3.581,0.19 -3.432,0.933C-3.239,1.899 -2.636,2.41 -1.656,2.392C-0.907,2.378 -0.383,2.015 -0.18,1.287C-0.068,0.884 -0.057,0.452 0,0.033M-1.778,4.187C-2.217,4.133 -2.66,4.104 -3.093,4.021C-4.25,3.799 -5.048,3.124 -5.522,2.047C-5.889,1.212 -5.945,0.35 -5.864,-0.549C-5.8,-1.266 -5.618,-1.925 -5.226,-2.526C-4.723,-3.297 -3.982,-3.733 -3.111,-3.937C-2.201,-4.151 -1.271,-4.154 -0.364,-3.932C0.916,-3.619 1.783,-2.851 2.165,-1.55C2.467,-0.524 2.462,0.508 2.2,1.515C1.782,3.115 0.662,3.975 -0.996,4.129C-1.253,4.153 -1.514,4.133 -1.773,4.133C-1.775,4.151 -1.776,4.169 -1.778,4.187" style="fill:white;fill-rule:nonzero;"/>
            </g>
        </g>
        <g transform="matrix(4.16667,0,0,4.16667,0,0)">
            <g transform="matrix(1,0,0,1,224.654,4094.49)">
                <path d="M0,-8.245L2.391,-8.245C2.399,-8.077 2.412,-7.933 2.412,-7.789C2.414,-6.383 2.424,-4.976 2.408,-3.57C2.401,-2.939 2.29,-2.318 1.988,-1.753C1.596,-1.019 1.014,-0.504 0.19,-0.303C-0.566,-0.119 -1.327,0 -2.108,-0.176C-2.412,-0.245 -2.735,-0.227 -3.037,-0.3C-4.144,-0.569 -4.827,-1.277 -5.119,-2.371C-5.249,-2.855 -5.323,-3.341 -5.317,-3.846C-5.305,-5.122 -5.313,-6.399 -5.313,-7.676L-5.313,-8.245L-2.905,-8.245L-2.905,-3.791C-2.905,-3.643 -2.911,-3.495 -2.902,-3.347C-2.824,-2.116 -2.03,-1.751 -0.936,-1.997C-0.305,-2.14 -0.074,-2.645 -0.006,-3.238C0.011,-3.384 0,-3.534 0,-3.682L0,-8.245Z" style="fill:white;fill-rule:nonzero;"/>
            </g>
        </g>
        <g transform="matrix(4.16667,0,0,4.16667,0,0)">
            <g transform="matrix(1,0,0,1,232.319,4103.2)">
                <path d="M0,-4.807L0,-3.49C0.434,-3.375 0.857,-3.444 1.274,-3.432C1.699,-3.42 2.125,-3.43 2.55,-3.43L3.841,-3.43L3.841,-1.931C3.2,-1.856 2.575,-1.906 1.953,-1.897C1.326,-1.888 0.699,-1.895 0.087,-1.895C-0.052,-1.487 -0.064,-0.694 0.058,-0.139C0.743,-0.107 1.441,-0.122 2.139,-0.126C2.838,-0.13 3.536,-0.154 4.262,-0.17C4.352,0.089 4.296,0.367 4.306,0.638C4.315,0.913 4.308,1.189 4.308,1.455C3.886,1.565 -1.368,1.603 -2.354,1.512C-2.366,1.498 -2.38,1.485 -2.39,1.47C-2.4,1.456 -2.413,1.439 -2.413,1.422C-2.421,1.275 -2.433,1.128 -2.432,0.98C-2.43,-1.442 -2.425,-3.864 -2.419,-6.286C-2.419,-6.318 -2.392,-6.351 -2.365,-6.41L4.167,-6.41L4.167,-4.807L0,-4.807Z" style="fill:white;fill-rule:nonzero;"/>
            </g>
        </g>
        <g transform="matrix(4.16667,0,0,4.16667,0,0)">
            <g transform="matrix(1,0,0,1,304.791,4103.2)">
                <path d="M0,-4.8L-4.127,-4.8C-4.23,-4.339 -4.197,-3.924 -4.157,-3.473C-3.729,-3.382 -3.306,-3.437 -2.888,-3.427C-2.463,-3.418 -2.038,-3.425 -1.612,-3.425L-0.323,-3.425L-0.323,-1.924C-0.487,-1.912 -0.63,-1.893 -0.772,-1.892C-1.734,-1.889 -2.696,-1.892 -3.657,-1.889C-3.835,-1.888 -4.014,-1.867 -4.185,-1.856L-4.185,-0.222C-3.78,-0.1 -0.911,-0.058 0.063,-0.153C0.208,0.096 0.126,0.377 0.139,0.643C0.151,0.918 0.141,1.194 0.141,1.46C-0.283,1.567 -5.595,1.604 -6.52,1.514C-6.532,1.501 -6.546,1.488 -6.557,1.473C-6.566,1.459 -6.579,1.441 -6.579,1.425C-6.586,-0.997 -6.592,-3.419 -6.598,-5.841C-6.598,-5.989 -6.593,-6.136 -6.584,-6.284C-6.583,-6.317 -6.555,-6.348 -6.527,-6.404L0,-6.404L0,-4.8Z" style="fill:white;fill-rule:nonzero;"/>
            </g>
        </g>
        <g transform="matrix(4.16667,0,0,4.16667,0,0)">
            <g transform="matrix(1,0,0,1,258.178,4086.25)">
                <path d="M0,7.917L-6.583,7.917C-6.67,7.449 -6.681,0.556 -6.596,0L-0.146,0C-0.049,0.506 -0.117,1.016 -0.098,1.565C-0.291,1.579 -0.451,1.6 -0.611,1.6C-1.648,1.604 -2.684,1.601 -3.721,1.604C-3.9,1.604 -4.08,1.62 -4.287,1.63L-4.287,2.901C-3.873,3.046 -3.448,2.955 -3.032,2.97C-2.588,2.986 -2.144,2.974 -1.7,2.974L-0.387,2.974L-0.387,4.515L-4.246,4.515C-4.369,5.104 -4.313,5.642 -4.295,6.235C-4.044,6.252 -3.847,6.276 -3.651,6.276C-2.633,6.28 -1.615,6.278 -0.597,6.277L-0.019,6.277C0.039,6.841 0.016,7.351 0,7.917" style="fill:white;fill-rule:nonzero;"/>
            </g>
        </g>
        <g transform="matrix(4.16667,0,0,4.16667,0,0)">
            <g transform="matrix(1,0,0,1,268.123,4088.91)">
                <path d="M0,2.746C0.751,2.695 1.466,2.647 2.185,2.599C2.359,3.007 2.471,3.39 2.794,3.677C3.189,4.027 4.134,4.096 4.589,3.657C4.936,3.323 4.978,2.853 4.611,2.548C4.405,2.376 4.142,2.251 3.885,2.165C3.414,2.007 2.922,1.91 2.45,1.755C2.083,1.636 1.72,1.494 1.379,1.316C0.646,0.934 0.266,0.334 0.282,-0.518C0.297,-1.356 0.658,-1.964 1.385,-2.363C1.896,-2.644 2.443,-2.8 3.025,-2.803C3.633,-2.807 4.236,-2.82 4.846,-2.717C5.894,-2.541 6.785,-1.825 6.91,-0.536C6.548,-0.514 6.187,-0.496 5.826,-0.469C5.459,-0.442 5.094,-0.407 4.721,-0.375C4.676,-0.473 4.646,-0.537 4.618,-0.602C4.325,-1.271 3.806,-1.54 3.098,-1.388C2.683,-1.298 2.52,-1.081 2.507,-0.601C2.604,-0.352 2.816,-0.234 3.05,-0.168C3.493,-0.041 3.947,0.048 4.387,0.183C4.896,0.34 5.41,0.497 5.896,0.712C7.728,1.523 7.381,3.846 6.304,4.681C5.773,5.092 5.178,5.27 4.533,5.394C3.636,5.566 2.77,5.438 1.905,5.243C0.74,4.978 -0.008,3.822 0,2.746" style="fill:white;fill-rule:nonzero;"/>
            </g>
        </g>
        <g transform="matrix(4.16667,0,0,4.16667,0,0)">
            <g transform="matrix(1,0,0,1,293.879,4089.32)">
                <path d="M0,1.837C-0.312,0.582 -0.747,-0.724 -0.972,-1.017C-1.267,-0.053 -1.551,0.879 -1.837,1.813C-1.349,1.932 -0.493,1.937 0,1.837M-2.221,-3.075L0.454,-3.075C1.442,-0.449 2.428,2.169 3.417,4.794C2.958,4.897 1.515,4.912 0.928,4.828C0.866,4.627 0.802,4.417 0.738,4.206C0.68,4.014 0.622,3.822 0.568,3.645C0.161,3.525 -1.633,3.5 -2.373,3.604C-2.496,3.995 -2.627,4.412 -2.772,4.87L-5.211,4.87C-4.22,2.237 -3.221,-0.417 -2.221,-3.075" style="fill:white;fill-rule:nonzero;"/>
            </g>
        </g>
        <g transform="matrix(4.16667,0,0,4.16667,0,0)">
            <g transform="matrix(1,0,0,1,241.886,4094.13)">
                <path d="M0,-7.889L2.506,-7.889C3.109,-5.983 3.712,-4.076 4.315,-2.169C4.773,-3.093 5.015,-4.053 5.32,-4.991C5.627,-5.937 5.904,-6.892 6.189,-7.824C6.644,-7.927 8.036,-7.937 8.631,-7.844C7.653,-5.212 6.678,-2.59 5.698,0.048L3.021,0.048C1.995,-2.554 1.035,-5.204 0,-7.889" style="fill:white;fill-rule:nonzero;"/>
            </g>
        </g>
        <g transform="matrix(4.16667,0,0,4.16667,0,0)">
            <g transform="matrix(1,0,0,1,295.128,4104.63)">
                <path d="M0,-7.833L0,-5.991L-2.531,-5.991C-2.633,-5.487 -2.671,-1.407 -2.6,0.1L-4.92,0.1C-4.929,-0.109 -4.944,-0.305 -4.944,-0.501C-4.946,-2.128 -4.945,-3.755 -4.945,-5.383L-4.945,-5.982C-5.809,-6.006 -6.617,-5.98 -7.461,-6C-7.538,-6.612 -7.488,-7.196 -7.497,-7.773C-7.061,-7.889 -1.446,-7.933 0,-7.833" style="fill:white;fill-rule:nonzero;"/>
            </g>
        </g>
        <g transform="matrix(4.16667,0,0,4.16667,0,0)">
            <g transform="matrix(1,0,0,1,242.185,4098.63)">
                <path d="M0,4.251L3.869,4.251L3.869,6.043C3.448,6.131 -1.564,6.159 -2.336,6.081C-2.433,5.645 -2.471,-0.318 -2.387,-1.772C-2.024,-1.889 -0.648,-1.908 0,-1.796L0,4.251Z" style="fill:white;fill-rule:nonzero;"/>
            </g>
        </g>
        <g transform="matrix(4.16667,0,0,4.16667,0,0)">
            <g transform="matrix(1,0,0,1,240.715,4086.16)">
                <path d="M0,8.018L-2.309,8.018C-2.402,7.566 -2.438,1.409 -2.357,0.115C-1.99,0 -1.604,0.074 -1.225,0.061C-0.838,0.049 -0.45,0.059 -0.09,0.059C-0.049,0.094 -0.034,0.104 -0.022,0.118C-0.01,0.131 0.007,0.147 0.007,0.162C0.016,2.674 0.023,5.185 0.029,7.697C0.029,7.787 0.014,7.876 0,8.018" style="fill:white;fill-rule:nonzero;"/>
            </g>
        </g>
        <g transform="matrix(4.16667,0,0,4.16667,0,0)">
            <g transform="matrix(1,0,0,1,276.797,4094.26)">
                <path d="M0,-8.015L2.312,-8.015C2.399,-7.585 2.426,-0.877 2.344,-0.114C1.978,0 1.59,-0.075 1.21,-0.062C0.824,-0.049 0.437,-0.059 0.079,-0.059C0.038,-0.102 0.024,-0.115 0.014,-0.129C0.003,-0.144 -0.012,-0.161 -0.012,-0.176C-0.018,-2.707 -0.023,-5.239 -0.027,-7.77C-0.027,-7.841 -0.012,-7.912 0,-8.015" style="fill:white;fill-rule:nonzero;"/>
            </g>
        </g>
    </g>
</svg>
